<svg version="1.2" xmlns="http://www.w3.org/2000/svg" viewBox="0 0 1265 250" width="1265" height="250">
	<style>
		.s0 { opacity: .98;fill: #fb8009 } 
		.s1 { opacity: .98;fill: #ffffff } 
	</style>
	<g id="Background">
		<path id="Path 0" class="s0" d="m1219 6.91c-1.92 1-4.74 3.23-6.25 4.96-1.51 1.72-3.2 4.82-3.74 6.88-0.55 2.06-1 5.1-1 6.75 0 1.65 0.45 4.69 1 6.75 0.54 2.06 2.45 5.39 4.24 7.4 1.94 2.18 6.87 5.43 12.25 8.08 4.95 2.44 9.55 5.18 10.22 6.1 0.67 0.92 1.22 3.02 1.22 4.67-0.01 1.65-1 4.68-2.22 6.73-1.22 2.05-1.87 4.08-1.45 4.5 0.43 0.42 2.34-0.02 4.25-0.98 1.92-0.96 4.61-3.21 5.99-5 1.38-1.79 2.8-5.05 3.16-7.25 0.39-2.44 0.13-5.36-0.67-7.5-0.73-1.92-2.26-4.55-3.41-5.84-1.15-1.29-5.01-4.04-8.59-6.11-3.58-2.07-7.53-5.06-8.78-6.66-1.26-1.59-2.27-4.13-2.25-5.64 0.01-1.54 1.11-3.85 2.48-5.25 1.35-1.38 3.15-2.5 4-2.5 0.85 0 2.29 0.34 3.19 0.75 0.9 0.41 2.29 2.1 3.09 3.75 1.33 2.76 1.27 3.24-0.74 6-1.2 1.65-1.81 3.38-1.34 3.84 0.47 0.46 2.16 0.24 3.76-0.5 1.6-0.74 3.85-2.61 5-4.17 1.45-1.95 2.07-4.26 2.04-7.5-0.04-3.31-0.77-5.64-2.5-8.02-1.35-1.84-3.69-3.98-5.2-4.75-1.51-0.77-5.34-1.38-8.5-1.36-3.54 0.03-7.1 0.75-9.25 1.87zm-148.64 25.34c-2.53 2.34-5.44 5.94-6.48 8-1.09 2.18-1.88 5.85-1.88 8.75 0 3 0.8 6.6 2 9l2 4c-6.2 0.77-11.04 2.23-14.75 3.73-3.71 1.49-9 4.25-11.75 6.12-2.75 1.87-6.72 5.03-8.83 7.03-2.11 1.99-4.24 4.41-4.75 5.37-0.87 1.66 1.82 1.75 50.08 1.75 40.12 0 51.01-0.27 51.03-1.25 0.02-0.69-1.9-3.08-4.25-5.32-2.35-2.24-6.75-5.72-9.78-7.72-3.03-2.01-8.31-4.79-11.75-6.18-3.44-1.39-8.06-2.87-10.27-3.28-2.21-0.41-4.01-0.75-4.01-0.75 0.01 0 0.92-1.8 2.03-4 1.11-2.2 2.02-5.8 2.02-8 0-2.39-1.1-6.18-2.76-9.43-1.52-2.99-4.56-6.94-6.76-8.78-2.2-1.83-4.57-3.32-5.27-3.31-0.7 0.01-3.34 1.93-5.87 4.27zm-171.8 38.94l-2.87 2.31c0.97 25.56 1.62 30.66 3.32 36 1.22 3.85 3.86 9.44 5.86 12.42 1.99 2.98 5.21 6.69 7.13 8.25 1.92 1.56 5.97 4.12 9 5.69 3.03 1.56 9.1 3.8 13.5 4.97 4.4 1.16 12.05 3.18 17 4.48l9 2.36c-0.38 5.29-0.27 8.29 0.01 10.08 0.27 1.79 1.95 4.86 3.74 6.82 2.01 2.21 4.77 3.96 7.25 4.58 2.2 0.55 5.8 0.66 8 0.25 2.3-0.43 5.41-2.05 7.32-3.82 1.88-1.74 3.73-4.71 4.25-6.83 0.86-3.48 0.55-4.38-4.32-12.63-4.42-7.47-5.96-9.24-9.75-11.11-2.47-1.23-7.42-3.27-11-4.55-3.58-1.27-11.45-3.74-17.5-5.49-6.05-1.75-13.03-4.25-15.5-5.55-2.47-1.3-5.74-3.5-7.25-4.89-1.51-1.39-3.83-4.89-5.15-7.78-1.32-2.89-2.67-7.84-3-11l-0.6-5.75c39.75 0.04 40.65 0.13 44.5 2.42 2.2 1.3 5.41 4.33 7.14 6.72 1.72 2.4 4.48 7.06 6.14 10.36 1.65 3.3 5.74 11.63 9.08 18.5 3.35 6.88 8.01 15.42 10.36 18.99 2.35 3.57 6.98 9.37 10.28 12.89 3.3 3.51 8.7 8.32 12 10.68 3.3 2.35 9.37 5.89 13.5 7.86 4.12 1.97 12.22 4.8 18 6.29 9.55 2.47 12.13 2.71 28.5 2.7 15.05-0.01 19.56-0.38 27.5-2.24 5.22-1.22 13.1-3.68 17.5-5.47 4.4-1.78 11.6-5.39 16-8.02 4.4-2.64 11.2-7.35 15.11-10.48 3.91-3.14 13.53-11.55 21.36-18.7 7.84-7.15 17.53-15.47 21.54-18.5 4.01-3.03 11.05-7.62 15.64-10.21 4.59-2.59 11.5-5.86 15.35-7.26 3.85-1.41 11.5-3.47 17-4.59 5.5-1.12 10.6-2.58 11.33-3.24 0.76-0.69 1.19-2.67 1-4.7-0.32-3.41-0.66-3.66-13.33-10-7.15-3.58-14.46-7.52-16.25-8.75-2.39-1.66-4.11-2.1-6.5-1.68-1.79 0.31-6.4 1.47-10.25 2.57-3.85 1.11-13.75 4.44-22 7.4-8.25 2.97-17.7 6.26-21 7.32-3.3 1.06-8.47 2.5-11.5 3.2-3.03 0.7-8.28 1.32-11.67 1.36-5.08 0.07-6.58-0.31-8.5-2.15l-2.33-2.23c-93.1-0.03-112.5 0.3-112.5 0.96 0 0.55-1.8 1.9-4 3-2.4 1.2-6 2-9 2-3.17 0-6.92-0.88-10.25-2.41-3.73-1.72-7.42-4.8-12.75-10.63-5.2-5.7-9.34-9.17-13.5-11.34l-6-3.12-63.07-0.62zm143.31 127.57c-3.48 4.26-6.87 8.3-7.53 8.99-0.76 0.79-4.06 1.25-9.02 1.24-5.32-0.01-8.54 0.47-10.07 1.5-1.33 0.89-2.25 2.53-2.25 4.01 0 1.37 0.45 3.4 1 4.5 0.98 1.97 2 2 61.93 2 52.79 0 61.14-0.2 62.5-1.5 0.86-0.83 1.57-2.63 1.57-4 0-1.38-0.9-3.4-2-4.5-1.69-1.69-3.3-2-10.25-1.96l-8.25 0.04c-10.08-11.99-13.56-16.06-14.25-16.78-1.03-1.07-2.55-1.03-8.5 0.2-4.31 0.89-12.62 1.5-20.5 1.5-7.29 0-15.61-0.47-18.5-1.05-2.89-0.57-6.22-1.24-7.4-1.49-1.7-0.35-3.47 1.17-8.48 7.3z"/>
		<path id="Path 1" class="s1" d="m491.06 85.75c-0.63 4.26-1.47 10.57-1.86 14.03l-0.7 6.27 58-0.55c2.58-18.6 3.37-24.79 3.42-25.75 0.07-1.63-1.93-1.75-28.81-1.75h-28.9zm-464.51-3.5c-0.27 1.24-4.57 31.72-9.55 67.75-4.98 36.03-9.27 66.74-9.53 68.25l-0.47 2.75h147c0.74-3.49 1.86-10.91 2.98-18.75 1.11-7.84 2.02-15.15 2.02-16.25 0-1.97-0.66-2-43.5-2h-43.5c0.91-5.81 1.47-9.97 1.84-13l0.66-5.5 78-0.5c2.92-22.09 3.94-29.06 4.14-29.75 0.28-0.98-7.91-1.25-38.64-1.25h-39c0.68-3.49 1.25-7.32 1.69-10.76l0.81-6.27c66.27 0.02 85.5-0.08 85.5-0.22 0-0.14 1.13-8.35 2.51-18.25 1.38-9.9 2.5-18.11 2.5-18.25 0-0.14-32.63-0.25-72.49-0.25h-72.49zm393.46-1.25c0 0.55-2.72 20.24-6.04 43.75-4.75 33.67-6.51 43.69-8.25 47.2-1.22 2.44-3.49 5.37-5.05 6.5-1.73 1.24-4.87 2.19-8 2.41-3.01 0.21-6.62-0.24-8.66-1.07q-3.5-1.43-5.25-5.11c-0.96-2.02-1.75-4.58-1.75-5.68 0-1.24-0.67-2-1.75-2.01-0.96 0-13.34 1.35-27.5 3-14.16 1.66-26.09 3.01-26.5 3-0.41-0.01-0.41 2.69 0 6 0.41 3.31 1.62 8.37 2.69 11.26 1.07 2.89 3.78 7.72 6.03 10.75 2.26 3.03 6.45 7.42 9.31 9.76 2.87 2.34 8.37 5.58 12.22 7.19 3.85 1.61 11.27 3.69 16.5 4.61 7.22 1.27 12.74 1.53 23 1.09 7.42-0.31 16.65-1.29 20.5-2.16 3.85-0.88 10.37-2.95 14.5-4.62 4.12-1.66 10.42-4.97 14-7.35 3.57-2.38 9-6.96 12.07-10.18 3.06-3.21 6.72-7.87 8.14-10.34 1.41-2.47 3.27-6.75 4.14-9.5 0.87-2.75 4.52-25.93 8.11-51.5 3.59-25.58 6.53-46.84 6.53-47.25 0.01-0.41-13.27-0.75-29.49-0.75-19 0-29.5 0.36-29.5 1zm-156.5 33.12c-3.3 0.48-8.25 1.62-11 2.52-2.75 0.9-7.48 2.87-10.5 4.38-3.03 1.51-7.86 4.6-10.75 6.86l-5.25 4.12-5.5-15.01-44.5 0.01c-0.76 3.49-3.91 25.43-7.48 51-3.57 25.57-6.72 47.74-7 49.25l-0.52 2.75c55.79 0 58.03-0.13 58.43-1.75 0.23-0.96 2.14-14.09 4.25-29.16l3.82-27.41c10.05-4.75 13.63-5.69 17-5.7 3.94-0.03 5.45 0.45 7.11 2.24 1.16 1.26 2.38 3.4 2.71 4.78 0.33 1.37-0.95 13.3-2.84 26.5-1.89 13.2-3.67 25.46-3.96 27.25l-0.52 3.25 58.38-0.5c7.4-52.7 9.57-70.7 9.59-74 0.03-3.3-0.61-8.25-1.42-11-0.81-2.75-2.96-6.96-4.76-9.36-2.23-2.95-5.23-5.29-9.29-7.22-3.3-1.58-8.93-3.32-12.5-3.88-3.58-0.57-8.98-0.97-12-0.91-3.03 0.06-8.2 0.51-11.5 0.99zm382 0c-3.3 0.48-8.25 1.62-11 2.52-2.75 0.9-7.48 2.87-10.5 4.38-3.03 1.51-7.86 4.6-10.75 6.86l-5.25 4.12-5.5-15.01-44.5 0.01c-0.76 3.49-3.91 25.43-7.48 51-3.57 25.57-6.72 47.74-7 49.25l-0.52 2.75c55.79 0 58.03-0.13 58.43-1.75 0.23-0.96 2.14-14.09 4.25-29.16l3.82-27.41c10.05-4.75 13.63-5.69 17-5.7 3.94-0.03 5.45 0.45 7.11 2.24 1.16 1.26 2.38 3.4 2.71 4.78 0.33 1.37-0.95 13.3-2.84 26.5-1.89 13.2-3.67 25.46-3.96 27.25l-0.52 3.25 58.38-0.5c7.4-52.7 9.57-70.7 9.59-74 0.03-3.3-0.61-8.25-1.42-11-0.81-2.75-2.96-6.96-4.76-9.36-2.23-2.95-5.23-5.29-9.29-7.22-3.3-1.58-8.93-3.32-12.5-3.88-3.58-0.57-8.98-0.97-12-0.91-3.03 0.06-8.2 0.51-11.5 0.99zm157 0c-3.3 0.48-8.25 1.62-11 2.52-2.75 0.9-7.48 2.87-10.5 4.38-3.03 1.51-7.86 4.6-10.75 6.86l-5.25 4.12-5.5-15.01-44.5 0.01c-0.76 3.49-3.91 25.43-7.48 51-3.57 25.57-6.72 47.74-7 49.25l-0.52 2.75c55.79 0 58.03-0.13 58.43-1.75 0.23-0.96 2.14-14.09 4.25-29.16l3.82-27.41c10.05-4.75 13.63-5.69 17-5.7 3.94-0.03 5.45 0.45 7.11 2.24 1.16 1.26 2.38 3.4 2.71 4.78 0.33 1.37-0.95 13.3-2.84 26.5-1.89 13.2-3.67 25.46-3.96 27.25l-0.52 3.25 58.38-0.5c7.4-52.7 9.57-70.7 9.59-74 0.03-3.3-0.61-8.25-1.42-11-0.81-2.75-2.96-6.96-4.76-9.36-2.23-2.95-5.23-5.29-9.29-7.22-3.3-1.58-8.93-3.32-12.5-3.88-3.58-0.57-8.98-0.97-12-0.91-3.03 0.06-8.2 0.51-11.5 0.99zm-315.98 5.13c-0.28 1.24-3.43 23.18-7 48.75-3.57 25.57-6.72 47.74-7 49.25l-0.52 2.75h58c0.75-3.49 3.9-25.65 7.49-51.5 3.59-25.85 6.74-48.01 7.01-49.25l0.5-2.25h-57.97z"/>
	</g>
</svg>